# xmcd
#
# Track frame offsets: 
#        150
#        13937
#        34200
#        52730
#        70587
#        88805
#        104855
#        124237
#        137960
#        158625
#        177450
#        197120
#        215075
#        231920
#        250305
#        266830
#        283042
#        299490
#
# Disc length: 4315 seconds
#
# Revision: 3
# Processed by: cddbd v1.5.2PL0 Copyright (c) Steve Scherf et al.
# Submitted via: ExactAudioCopy v1.3
#
DISCID=2310d912
DTITLE=BARBEE BOYS - BARBEE BOYS [Disc 1]
DYEAR=1992
DGENRE=Rock
TTITLE0=???DANCE
TTITLE1=????
TTITLE2=????!
TTITLE3=?? - cryin' on the beach
TTITLE4=???? VS ????
TTITLE5=Shit! Shit! ??
TTITLE6=midnight peepin'
TTITLE7=??????
TTITLE8=??????
TTITLE9=???????
TTITLE10=??!???????
TTITLE11=????
TTITLE12=???????? 7DAYS
TTITLE13=??????
TTITLE14=????
TTITLE15=STOP!
TTITLE16=??????
TTITLE17=????
EXTD=YEAR: 1992
EXTT0=
EXTT1=
EXTT2=
EXTT3=
EXTT4=
EXTT5=
EXTT6=
EXTT7=
EXTT8=
EXTT9=
EXTT10=
EXTT11=
EXTT12=
EXTT13=
EXTT14=
EXTT15=
EXTT16=
EXTT17=
PLAYORDER=
